PathFileType	4	(X/Y/Z)	Kaydara	
DataRate	CameraRate	NumFrames	NumMarkers	Units	OrigDataRate	OrigDataStartFrame	OrigNumFrames	
120.00	120.00	4	72	mm	120.00	68	268	
Frame#	Time	Hips			RightUpLeg			RightLeg			RightFoot			RightFoot_End			LeftUpLeg			LeftLeg			LeftFoot			LeftFoot_End			Spine			Spine1			Spine2			Spine3			Neck			Head			Head_End			RightShoulder			RightArm			RightForeArm			RightHand			RightHandThumb1			RightHandThumb2			RightHandThumb3			RightHandThumb3_End			RightInHandIndex			RightHandIndex1			RightHandIndex2			RightHandIndex3			RightHandIndex3_End			RightInHandMiddle			RightHandMiddle1			RightHandMiddle2			RightHandMiddle3			RightHandMiddle3_End			RightInHandRing			RightHandRing1			RightHandRing2			RightHandRing3			RightHandRing3_End			RightInHandPinky			RightHandPinky1			RightHandPinky2			RightHandPinky3			RightHandPinky3_End			LeftShoulder			LeftArm			LeftForeArm			LeftHand			LeftHandThumb1			LeftHandThumb2			LeftHandThumb3			LeftHandThumb3_End			LeftInHandIndex			LeftHandIndex1			LeftHandIndex2			LeftHandIndex3			LeftHandIndex3_End			LeftInHandMiddle			LeftHandMiddle1			LeftHandMiddle2			LeftHandMiddle3			LeftHandMiddle3_End			LeftInHandRing			LeftHandRing1			LeftHandRing2			LeftHandRing3			LeftHandRing3_End			LeftInHandPinky			LeftHandPinky1			LeftHandPinky2			LeftHandPinky3			LeftHandPinky3_End			
		X1	Y1	Z1	X2	Y2	Z2	X3	Y3	Z3	X4	Y4	Z4	X5	Y5	Z5	X6	Y6	Z6	X7	Y7	Z7	X8	Y8	Z8	X9	Y9	Z9	X10	Y10	Z10	X11	Y11	Z11	X12	Y12	Z12	X13	Y13	Z13	X14	Y14	Z14	X15	Y15	Z15	X16	Y16	Z16	X17	Y17	Z17	X18	Y18	Z18	X19	Y19	Z19	X20	Y20	Z20	X21	Y21	Z21	X22	Y22	Z22	X23	Y23	Z23	X24	Y24	Z24	X25	Y25	Z25	X26	Y26	Z26	X27	Y27	Z27	X28	Y28	Z28	X29	Y29	Z29	X30	Y30	Z30	X31	Y31	Z31	X32	Y32	Z32	X33	Y33	Z33	X34	Y34	Z34	X35	Y35	Z35	X36	Y36	Z36	X37	Y37	Z37	X38	Y38	Z38	X39	Y39	Z39	X40	Y40	Z40	X41	Y41	Z41	X42	Y42	Z42	X43	Y43	Z43	X44	Y44	Z44	X45	Y45	Z45	X46	Y46	Z46	X47	Y47	Z47	X48	Y48	Z48	X49	Y49	Z49	X50	Y50	Z50	X51	Y51	Z51	X52	Y52	Z52	X53	Y53	Z53	X54	Y54	Z54	X55	Y55	Z55	X56	Y56	Z56	X57	Y57	Z57	X58	Y58	Z58	X59	Y59	Z59	X60	Y60	Z60	X61	Y61	Z61	X62	Y62	Z62	X63	Y63	Z63	X64	Y64	Z64	X65	Y65	Z65	X66	Y66	Z66	X67	Y67	Z67	X68	Y68	Z68	X69	Y69	Z69	X70	Y70	Z70	X71	Y71	Z71	X72	Y72	Z72	

68	0.558	2446.805	859.65103	-201.189	2531.8283867166997	855.3895766470616	-232.45357266758882	2394.687521697365	463.9092373301969	-285.3070745214389	2432.0504361938943	46.082416002980416	-345.559693253695	2355.3355955473544	-32.76242384575869	-187.5199732670832	2371.195514123489	836.1739139909469	-155.94728750922005	2249.7009718217223	439.73414591134116	-98.0143244798379	2192.90823338888	64.65138255911981	74.30082782361335	2226.901563763041	19.755681200019623	255.55697362105767	2400.4502516123785	981.0535386498561	-260.4465451587886	2347.1381338229985	1046.366078715165	-308.043305177638	2285.064279405671	1107.841644582786	-357.9823562842707	2217.694443049291	1157.4028804472523	-406.3157693924635	2144.915823498411	1210.708344869519	-454.4689911659277	2104.0809313891473	1283.494544176715	-410.16763400777154	2080.0502836970145	1369.1585548883656	-277.8525352847213	2187.976815136233	1200.6431851133477	-456.6033004612797	2264.8661677148666	1206.8427248282146	-528.2353238125265	2342.859943907435	997.214750442588	-546.2007162516926	2438.4419384226835	920.7532746902283	-632.597367712855	2442.130756046713	932.025436309855	-643.2532510096057	2436.2114648926786	937.7939906099768	-659.5576011888581	2433.642377808914	939.4132549357466	-670.5298285384035	2432.829282293808	938.7117758496746	-679.3499912882945	2449.646902668867	924.3724312443248	-642.3394792259948	2465.557684181427	921.4042354207928	-658.0702689490686	2468.0289335854422	919.8256891278456	-671.8035229833057	2462.344384871772	921.2953106556437	-680.9614414268641	2452.768558801687	924.164989552214	-688.9596280902833	2452.908498411927	917.9768356029234	-640.8850566262703	2470.194047644277	911.6222219218607	-655.4409025177943	2473.2586845548954	909.0660628423888	-670.1871614744239	2466.577068427203	910.4390695922032	-681.1209492421935	2456.185204910169	913.3845489706134	-689.8165577010221	2454.9074537903866	913.5128756658015	-639.4284228348259	2472.428485800549	903.8807766253359	-651.1279843411219	2475.447419995941	900.8109956693488	-663.7134982658616	2469.187147021783	901.6883160694318	-674.1180102210177	2459.5036885586646	904.2459596669106	-682.2267872948426	2455.9574908581026	908.6210069958483	-637.5117230579095	2473.0179029839514	896.6985569968144	-646.9731238276128	2475.900787085312	892.9692060296234	-656.583179598121	2471.5596657893716	892.9942140634425	-663.9459058444074	2463.1112680589285	894.9059846614464	-670.9986874620998	2149.501889753221	1188.2857517168839	-418.39027277763125	2095.256937141569	1123.5914210309413	-350.2178809717399	2202.43997741743	1005.9555431398046	-514.1382128955271	2385.603643777039	955.4443105800922	-496.5358420632913	2380.178360252365	966.8526818035941	-501.7181475652944	2385.9163329797875	967.1436856605976	-527.0847876387236	2390.2923466182015	965.3462800399487	-546.9079134975698	2394.26558783091	962.1368654320078	-565.2795312338487	2379.936118745335	961.3594257425121	-508.7293112930661	2377.4789518789007	960.2535478117337	-540.5632009765322	2381.6820213701303	956.1202880307196	-569.1231788495409	2387.421785969513	953.4193574230188	-586.1676577284295	2394.281661745616	951.0952368403306	-599.795616776969	2381.3364688118895	955.7981972275817	-513.7946826881905	2379.6955837473197	951.7124452737123	-547.5825306252	2384.4820974607683	946.4678318208151	-579.3202558653949	2391.502961600024	942.8568382092659	-600.1588127368158	2399.0555999073395	940.1425077878671	-615.2039514030625	2382.3304724479026	951.9182664087936	-516.5163997960685	2381.552954804366	944.9495946618079	-549.0291821093731	2385.932682653918	939.6339412850891	-577.2249188616947	2392.8152107857736	935.7555116973967	-597.608423205434	2399.9688900035053	933.0160186503205	-611.8887792997735	2384.004562356376	947.314153094851	-519.0825177551388	2384.127932758998	938.153739967991	-550.3456271025142	2387.9630361717045	932.7660040385376	-573.6138438293628	2393.14183574396	929.3898844907092	-588.8154849990408	2399.570140568335	926.6482308880537	-601.6576861695717
69	0.567	2446.805	859.65103	-201.189	2531.6336856346074	855.467077511645	-232.08632927027276	2394.653220197851	463.9218142671104	-284.34232305121793	2432.4216919769606	46.40916616283415	-344.6116414144232	2356.1496621294	-32.53158538324281	-186.70102548179526	2371.351647651234	836.0747026195005	-156.33669835035138	2249.9580974630885	439.5794825175256	-98.68842060187073	2193.1209318525666	64.25000962797169	73.03745601470763	2227.342411343613	19.389623987547377	254.23232110437132	2400.631067508399	981.1440662715056	-260.3719753041055	2347.3985824008582	1046.5377244293904	-307.9300413404136	2285.3974080992607	1108.1022648081412	-357.8288517026103	2218.0632719883292	1157.7330288423786	-406.1158808994702	2145.3207678566523	1211.1088827669448	-454.2158444264138	2104.4271955818476	1283.8957425385827	-409.99357680239336	2080.4783562775815	1369.6506168718875	-277.74572826681384	2188.267852397491	1200.9431349786043	-456.3707182807923	2264.802302658646	1206.9270461143383	-527.9133936404386	2343.031816174372	997.5261352974173	-545.8387354746956	2437.835056306348	920.7556380830376	-631.8199168143108	2441.201406856352	931.3978760511309	-642.7111709103417	2434.8277160786333	936.5941280267266	-658.799720238114	2431.9242294280684	937.8571968243489	-669.5363194240904	2430.817003364081	936.8950067640025	-678.0870376743864	2448.6247992907925	923.8367027304449	-641.532947296538	2463.8292733640537	920.2127883016091	-656.8165588435464	2465.802672792212	918.1896932475241	-670.132348441625	2459.874568961601	919.4057753912506	-679.0766140434182	2450.1416420568567	922.0810051474095	-686.9289102681126	2451.8618499303075	917.579690539843	-639.8569130531218	2468.4452117050632	910.6604613598272	-653.8567529403864	2470.9656396575633	907.6396398754105	-668.119548733405	2463.9897228591753	908.716561643382	-678.7821748654294	2453.4257400706747	911.4540470483272	-687.3116406165503	2453.86129322663	913.2303981384673	-638.255548886933	2470.7528801068106	903.1919087503423	-649.3324536465561	2473.2976142982407	899.7388951579265	-661.4689060768242	2466.753535681396	900.342181015405	-671.5971668407186	2456.9082749089503	902.7097345685424	-679.5427681959289	2454.9338778827096	908.4894783300631	-636.1815954460955	2471.429996730328	896.2872250772723	-644.9762557580058	2473.9361097250276	892.286725672777	-654.1862675878406	2469.389406667118	892.1291400416029	-661.3279225069215	2460.7985012785684	893.8824681480743	-668.2248924066008	2150.0051707529396	1188.7389047761758	-418.1650172113365	2095.960015630808	1124.1642930549883	-350.36643093915774	2202.0021318305744	1005.105092767361	-513.2609937581136	2380.989140805964	949.8665081289793	-495.7460927950516	2375.4880444461746	961.2881068397476	-500.97949142672246	2381.236402170687	961.5773043749264	-526.2718808323996	2385.632602279181	959.7670079296895	-546.0244614864279	2389.6337612257985	956.5368910067588	-564.321150253034	2375.2797228768713	955.7519617634936	-507.9348332487826	2372.8307032762286	954.5679774145281	-539.6612300237769	2377.0691827407404	950.3931628899147	-568.1089221536294	2382.8361037723826	947.688962518282	-585.086708212602	2389.721922503708	945.3773536951857	-598.6615636821907	2376.7164415940993	950.1624168159443	-512.9509275357179	2375.1031661851703	945.9851638278864	-546.607288179535	2379.933131433706	940.69173718917	-578.2162886285759	2386.989065706146	937.0751320484447	-598.9714070114504	2394.5712118221018	934.3736831016336	-613.9569952924575	2377.735717501285	946.2642524924482	-515.6408118310643	2377.004249325845	939.1970988226353	-548.0088104078204	2381.426725237373	933.8355059186289	-576.0862160816525	2388.3456687546104	929.9498578732852	-596.385981588275	2395.5283204931097	927.2216226165368	-610.6088054070161	2379.440396503436	941.6431295150742	-518.1714943622427	2379.6241400750205	932.3811381249033	-549.2807201812042	2383.5008805982734	926.9517441408808	-572.4452459713422	2388.709824029481	923.568004561042	-587.581484973166	2395.165853825346	920.8349694689836	-600.3702299263336
70	0.575	2446.805	859.65103	-201.189	2531.4361570186034	855.5558584347739	-231.72882223677408	2394.722782381587	463.9093756097215	-283.3641640911915	2432.92963335641	46.72458178598829	-343.6923053994686	2357.098826409608	-32.33575630258309	-185.92612751210376	2371.514529539745	835.9647432690872	-156.71775865213857	2250.268743079367	439.3829866564337	-99.45106179640241	2193.557127411692	63.49808759180914	71.11428459096727	2228.0114122143164	18.628114632745604	252.23802916894977	2400.7949200788826	981.2315723852744	-260.29075643200247	2347.594497801002	1046.6503928168208	-307.8437810904397	2285.598091989442	1108.2212660649113	-357.7360087120199	2218.1994355680145	1157.7909135005045	-405.99554219995207	2145.3851278909633	1211.0991819326514	-454.0610300819847	2104.221519961574	1283.8052213083695	-409.9724393455102	2080.4962291230513	1369.609472303496	-277.74289384636324	2188.19536930592	1200.7405042450723	-456.38846525773647	2264.116299388261	1205.7737051037238	-528.4160309945235	2340.8994987196957	995.677884280435	-545.9650069095652	2433.089376131586	915.4038771636451	-630.8857965233068	2436.005174741523	924.333426786125	-642.5623699721732	2428.704293992645	927.9642435659077	-658.454961005269	2425.072396158143	928.221608519423	-668.8532907482539	2423.287167005793	926.4932645488171	-676.9493712114363	2443.101640640843	916.9018504012706	-640.7752402264922	2456.7637986617215	911.2413048349952	-655.3960568516023	2457.605571007223	907.8866432573484	-668.0238258390577	2451.1289778470837	908.4111755737879	-676.631685202559	2441.0466446087057	910.6059408964954	-684.2671477223424	2446.1646313227297	910.9495322414017	-638.5626220306766	2461.1495307884124	902.2086178449903	-651.6258169032333	2462.4170904469925	897.7817100185403	-665.068909227859	2454.7707836321433	898.0468166875505	-675.2925962436987	2443.8202820301385	900.2695334670673	-683.5687255284034	2448.0802023236342	906.8667541036073	-636.5999241132911	2463.465690673109	895.4249063632788	-646.5262390297503	2464.902508887323	890.7971749491319	-657.8792410372139	2457.7033362929033	890.6443986006641	-667.5474722008319	2447.4906445474626	892.5407335466901	-675.2375136811562	2449.1028119768444	902.4977128829083	-634.1220090828466	2464.185386457492	889.2344794140676	-641.6149555502038	2465.7860637354597	884.3787387683429	-650.0949887706896	2460.7526990470387	883.7110063958705	-656.8514522080555	2451.83122801366	885.070692660709	-663.493466578313	2150.279413922884	1188.9809594241542	-417.88576865993	2096.662129134215	1124.8380487376082	-349.7931150018487	2200.289987296569	1001.9712938058551	-511.1707957773264	2375.491749454497	940.6432562258626	-494.5526435477735	2369.4151297451012	951.7633092407825	-500.02637563854233	2374.978589545759	951.9017118362821	-525.3090292652174	2379.3187675013737	949.9561342038214	-544.9963163293623	2383.3354581182243	946.5873418759421	-563.1885131843947	2369.3903369296263	946.0591559225827	-506.8030239978029	2366.717863248932	944.1831714831557	-538.3675658771301	2370.931340038969	939.6968472558134	-566.6545000392216	2376.7124356249633	936.9706781857544	-583.5661538513702	2383.63002849881	934.7566992095095	-597.1090731152705	2371.0388855811993	940.4194525439633	-511.6633155586792	2369.322200735584	935.5400652623989	-545.0775497367309	2374.153723780208	929.9025573422063	-576.4910392530365	2381.2405956352786	926.2574492400938	-597.1567266000544	2388.8642364284133	923.6618544609981	-612.1026869906814	2372.2126280200437	936.5014490473333	-514.2473314202823	2371.5199563588694	928.781784072313	-546.306648827366	2375.973437881334	923.1171665251336	-574.1934895618703	2382.9379686383295	919.2023667748986	-594.3962885891932	2390.167098080922	916.5728751674824	-608.5767828624053	2374.1088541896574	931.8937501819626	-516.6601002686818	2374.4431976906067	922.0344170132078	-547.4137084331184	2378.390858636839	916.3603570128631	-570.3955380656283	2383.655350412345	912.9543795559312	-585.4464900232083	2390.165381828035	910.3082565577545	-598.1893542312491
71	0.583	2446.805	859.65103	-201.189	2531.2004182631717	855.6026971654753	-231.499683743048	2394.9026630118065	463.8230931601733	-282.6306327364555	2433.5492112607126	46.99449622162054	-343.1969744184448	2358.1662296536833	-32.21152314143521	-185.58751140009596	2371.7239387873806	835.9010038565156	-156.9663238749693	2250.6514945501062	439.2277927095337	-100.04690543444798	2194.2013742995905	62.563546503366744	68.9657504440777	2228.890335558787	17.62208157483875	250.00560896735138	2400.9246005345904	981.3028872891515	-260.21967099077017	2347.7073952883798	1046.6934635534103	-307.7967958858873	2285.653971019636	1108.1984289227282	-357.7104739786332	2218.1094320101492	1157.6013067848892	-405.9596647997349	2145.1357870803804	1210.730460498653	-454.0080844373995	2103.519969602133	1283.2855639537488	-410.09668228515176	2080.13973215028	1369.0895078825254	-277.8344295407193	2187.792743941891	1200.1034181349312	-456.63798688292565	2262.872749130861	1203.5259573265091	-529.6670305105941	2336.3281161606624	991.8309706743294	-546.2468913782285	2424.2565827618396	905.1875949819039	-629.5763981468077	2426.8468347107514	911.844729340042	-642.3777292298248	2418.522805795764	913.3740260725606	-658.2298907627024	2414.038700392739	912.2599822202741	-668.3463048051533	2411.423525285494	909.4671354798421	-675.990283808621	2433.428080268085	904.5088207728909	-639.832989448545	2445.2205158682636	895.9755673784548	-653.8621126760875	2444.6789349733945	890.7604556355169	-665.8171867023339	2437.5560600428457	890.3523572941965	-674.1162264007457	2427.082975290444	891.9262896615382	-681.5698709261296	2436.1723145641186	898.9135511876394	-636.9383805388829	2449.1611509860336	887.5637748694548	-649.0556422828092	2448.8830985015566	881.1633490775918	-661.6762965226962	2440.4397520304515	880.3304355197805	-671.4849881716069	2429.053280725277	881.8870522769183	-679.5415531897289	2437.909945699726	895.154959256314	-634.5098301028868	2451.350777845254	881.652434151276	-643.1865576532839	2451.4066915043704	875.3665571379076	-653.7338537006345	2443.4207931358715	874.1875699358776	-662.954596593932	2432.7896859733346	875.4732045900265	-670.4158289555527	2438.7851859344405	891.2536390054147	-631.5052578258619	2451.991165077765	876.3831583652319	-637.5301447386604	2452.441905535531	870.3053310233205	-645.231800976254	2446.8133355230716	868.9402057530287	-651.5974320940755	2437.5089236714507	869.7883333104998	-657.9996773755673	2150.3288885771362	1189.0264390953728	-417.57636585120025	2097.375560739156	1125.6357749859799	-348.48709495928506	2197.7324026845326	997.3596368519849	-508.1074414640391	2370.1846969760963	929.6162998606063	-493.10814195842767	2363.087821258103	940.1598713618212	-498.9984880517161	2368.2973140937424	940.0188945794655	-524.330228580624	2372.517182217369	937.8309063802524	-543.957751472919	2376.5415351924858	934.2190880653994	-562.0197557276064	2363.3801781445413	934.1731121708702	-505.48813030109847	2360.281473359792	931.0586810615855	-536.8522890270501	2364.420632651212	926.021281505378	-564.9381163912409	2370.2078241482486	923.2581652253157	-581.7829750529465	2377.165735789944	921.2197799767949	-595.3098833539921	2365.397358086526	928.4611342770168	-510.09694315540196	2363.464268792454	922.334620807782	-543.1797236643251	2368.264997613564	916.0906492452599	-574.341157338491	2375.3833593782842	912.3985041209891	-594.9106069385647	2383.0628520999835	909.9938436205566	-609.8314455821138	2366.8408977849567	924.5199584935104	-512.5083757492849	2366.1840498747943	915.6516338847312	-544.1207467373864	2370.662459364961	909.4551818821495	-571.7550873752741	2377.684858731032	905.4932940594351	-591.8476359048519	2384.9795319055534	903.042513932825	-605.9962551205871	2369.0723803476244	919.9506911812367	-514.7282575695084	2369.6410369449445	909.0486466985727	-544.9528570039213	2373.689280218377	902.948697782002	-567.6832610389298	2379.034981915215	899.508365337242	-582.6299811235067	2385.625517377701	897.0205485507691	-595.3309004699632
